<?xml version="1.0" encoding="UTF-8" standalone="no"?>
<!DOCTYPE svg PUBLIC "-//W3C//DTD SVG 1.1//EN" "http://www.w3.org/Graphics/SVG/1.1/DTD/svg11.dtd">
<svg width="100%" height="100%" viewBox="0 0 500 500" version="1.1" xmlns="http://www.w3.org/2000/svg" xmlns:xlink="http://www.w3.org/1999/xlink" xml:space="preserve" xmlns:serif="http://www.serif.com/" style="fill-rule:evenodd;clip-rule:evenodd;stroke-linejoin:round;stroke-miterlimit:2;">
    <g transform="matrix(1.25004,0,0,1.25004,-62.5091,-62.5091)">
        <path d="M293.994,206.006L399.994,250L294.994,294.994L250,399.994L205.006,294.994L100.006,250L205.006,205.006L250,100.006L293.994,206.006Z" style="fill:url(#_Linear1);"/>
    </g>
    <g transform="matrix(1.25004,0,0,1.25004,-62.5091,-62.5091)">
        <path d="M76.522,262.703L50.006,250L76.522,237.297C79.285,199.094 94.409,164.295 117.91,136.883L117.91,117.9L136.896,117.9C164.305,94.405 199.1,79.285 237.297,76.522L250,50.006L262.402,76.501C300.717,79.205 335.623,94.343 363.104,117.9L382.111,117.9L382.111,136.908C405.661,164.387 420.795,199.287 423.499,237.596L449.994,250L423.478,262.705C420.715,300.895 405.599,335.685 382.111,363.092L382.111,382.1L363.104,382.1C335.695,405.595 300.9,420.715 262.703,423.478L250,449.994L237.297,423.478C199.1,420.715 164.305,405.595 136.896,382.1L117.91,382.1L117.91,363.117C94.409,335.705 79.285,300.906 76.522,262.703ZM81.741,234.797L105.028,223.642C110.372,194.106 124.533,167.622 144.683,147.019L117.91,147.019L117.91,144.724C97.822,169.888 84.769,200.909 81.741,234.797ZM110.645,220.951L169.579,192.719L167.118,167.118L192.719,169.579L220.951,110.645C165.689,122.124 122.124,165.689 110.645,220.951ZM223.642,105.028L234.797,81.741C200.915,84.768 169.899,97.818 144.738,117.9L147.029,117.9L147.029,144.672C167.631,124.528 194.111,110.371 223.642,105.028ZM264.84,81.709L275.701,104.911C305.506,110.163 332.234,124.388 352.992,144.693L352.992,117.9L355.262,117.9C330.011,97.746 298.864,84.675 264.84,81.709ZM278.315,110.494L306.028,169.699L332.882,167.118L329.867,193.76L389.505,221.681C378.21,165.827 334.169,121.787 278.315,110.494ZM395.089,224.295L418.291,235.158C415.324,201.141 402.258,169.999 382.111,144.751L382.111,147.019L355.317,147.019C375.615,167.774 389.836,194.496 395.089,224.295ZM418.259,265.205L394.971,276.363C389.627,305.897 375.466,332.379 355.317,352.981L382.111,352.981L382.111,355.249C402.187,330.091 415.232,299.08 418.259,265.205ZM389.354,279.054L330.008,307.488L332.882,332.882L307.281,330.421L279.049,389.355C334.31,377.877 377.874,334.314 389.354,279.054ZM276.358,394.972L265.203,418.259C299.085,415.232 330.101,402.182 355.262,382.1L352.992,382.1L352.992,355.307C332.387,375.462 305.899,389.627 276.358,394.972ZM234.797,418.259L223.642,394.972C194.111,389.629 167.631,375.472 147.029,355.328L147.029,382.1L144.738,382.1C169.899,402.182 200.915,415.232 234.797,418.259ZM220.951,389.355L192.719,330.421L167.118,332.882L169.579,307.281L110.645,279.049C122.124,334.311 165.689,377.876 220.951,389.355ZM105.028,276.358L81.741,265.203C84.769,299.091 97.822,330.112 117.91,355.276L117.91,352.981L144.683,352.981C124.533,332.378 110.372,305.894 105.028,276.358ZM303.994,196.006L250,75.006L195.006,195.006L75.006,250L195.006,304.994L250,424.994L304.994,304.994L424.994,250L303.994,196.006Z" style="fill:url(#_Linear2);"/>
    </g>
    <defs>
        <linearGradient id="_Linear1" x1="0" y1="0" x2="1" y2="0" gradientUnits="userSpaceOnUse" gradientTransform="matrix(-399.988,399.988,-399.988,-399.988,449.994,50.0058)"><stop offset="0" style="stop-color:rgb(184,57,100);stop-opacity:1"/><stop offset="1" style="stop-color:rgb(248,198,127);stop-opacity:1"/></linearGradient>
        <linearGradient id="_Linear2" x1="0" y1="0" x2="1" y2="0" gradientUnits="userSpaceOnUse" gradientTransform="matrix(399.988,399.988,-399.988,399.988,50.0058,50.0058)"><stop offset="0" style="stop-color:rgb(234,209,251);stop-opacity:1"/><stop offset="1" style="stop-color:rgb(247,250,233);stop-opacity:1"/></linearGradient>
    </defs>
</svg>
